<svg xmlns="http://www.w3.org/2000/svg" width="500" height="500" viewBox="0 0 500 500">
<g>
<path d="M 202.45 371.09 C202.14,371.59 201.57,371.99 201.19,371.98 C200.43,371.95 193.14,367.98 191.51,366.71 C190.96,366.27 186.84,363.34 182.37,360.21 C159.77,344.34 139.48,325.25 121.99,303.39 C95.58,270.38 86.50,248.22 86.62,217.00 C86.69,200.08 88.84,189.59 94.94,176.50 C109.59,145.03 135.29,124.60 169.06,117.55 C191.86,112.80 219.51,119.46 240.95,134.86 C244.49,137.41 247.84,139.80 248.38,140.17 C248.93,140.55 246.61,143.80 243.16,147.49 C237.14,153.92 229.32,164.97 225.78,172.06 C217.98,187.63 214.79,203.15 214.89,225.00 C214.92,232.43 214.59,239.07 214.16,239.76 C213.63,240.60 212.39,238.90 210.50,234.76 C196.04,203.16 185.09,182.87 180.75,179.65 C177.54,177.27 170.42,176.20 156.97,176.08 C141.04,175.94 140.44,177.42 149.04,195.46 C178.29,256.85 182.42,265.48 196.39,294.35 C201.68,305.27 206.00,314.34 206.00,314.51 C206.00,316.09 220.93,345.56 223.65,349.35 C225.61,352.07 226.60,354.06 225.85,353.79 C225.11,353.51 223.75,353.55 222.83,353.89 C220.47,354.75 213.25,360.72 208.46,365.75 C204.78,369.62 201.98,371.46 203.49,369.01 C203.86,368.42 203.40,368.29 202.35,368.69 C201.27,369.11 201.06,369.52 201.81,369.77 C202.47,369.99 202.76,370.58 202.45,371.09 Z" fill="rgb(65,188,161)"/>
<path d="M 248.43 140.59 C261.66,151.92 272.16,166.61 278.48,183.50 C282.10,193.17 282.75,196.24 284.95,214.36 C286.02,223.08 287.13,230.46 287.42,230.75 C287.71,231.05 288.64,230.72 289.48,230.02 C290.52,229.16 291.00,229.11 291.00,229.88 C291.00,230.49 290.52,231.00 289.94,231.00 C289.36,231.00 289.12,231.38 289.41,231.85 C289.70,232.32 285.41,242.34 279.87,254.10 C274.33,265.87 266.90,281.79 263.35,289.47 C259.80,297.16 255.77,304.92 254.40,306.72 C251.30,310.78 247.75,311.07 245.38,307.46 C244.09,305.49 231.25,279.02 225.04,265.50 C224.53,264.40 221.34,257.65 217.94,250.50 C215.70,245.79 213.24,240.58 211.43,236.70 C212.80,239.42 213.72,240.45 214.16,239.76 C214.59,239.07 214.92,232.43 214.89,225.00 C214.79,203.15 217.98,187.63 225.78,172.06 C229.32,164.97 237.14,153.92 243.16,147.49 C246.04,144.41 248.13,141.65 248.43,140.59 ZM 89.11 242.73 C88.83,241.59 88.56,240.44 88.30,239.29 C86.33,230.44 86.01,215.77 87.22,204.02 C86.82,207.97 86.64,212.23 86.62,217.00 C86.59,226.19 87.35,234.60 89.11,242.73 ZM 122.74 304.33 C118.40,298.97 114.16,293.40 110.02,287.62 C106.65,282.89 103.60,277.99 100.88,272.95 C106.16,282.38 113.09,292.27 121.99,303.39 C122.24,303.70 122.49,304.01 122.74,304.33 ZM 208.77 119.49 C221.93,123.08 234.18,129.32 244.84,137.66 C243.68,136.83 242.33,135.86 240.95,134.86 C231.16,127.83 220.09,122.62 208.77,119.49 ZM 93.38 180.00 C97.03,171.04 101.93,162.67 107.85,155.13 C102.90,161.55 98.58,168.69 94.94,176.50 C94.38,177.69 93.86,178.85 93.38,180.00 ZM 142.67 126.56 C146.90,124.43 151.30,122.58 155.83,121.06 C160.56,119.46 165.13,118.26 169.63,117.44 C169.44,117.47 169.25,117.51 169.06,117.55 C159.61,119.53 150.79,122.55 142.67,126.56 ZM 152.40 336.03 C161.86,344.76 171.87,352.83 182.37,360.21 C171.82,352.80 161.86,344.77 152.40,336.03 Z" fill="rgb(105,72,172)"/>
<path d="M 310.31 292.76 C308.85,292.95 306.83,293.55 305.83,294.09 C304.82,294.63 304.00,294.83 304.00,294.54 C304.00,293.65 310.11,280.81 323.88,252.80 C331.10,238.11 337.00,225.63 337.00,225.05 C337.00,224.47 337.42,224.00 337.92,224.00 C338.43,224.00 339.36,222.43 340.00,220.51 C340.63,218.59 342.67,215.45 344.54,213.53 C346.40,211.61 348.66,208.63 349.55,206.91 C350.94,204.22 351.57,203.86 354.04,204.36 C355.95,204.74 357.45,204.41 358.47,203.38 C359.33,202.53 361.59,201.40 363.51,200.87 C365.43,200.34 367.00,199.49 367.00,198.99 C367.00,198.49 367.96,197.19 369.12,196.10 C370.68,194.65 371.08,193.44 370.60,191.56 C370.07,189.43 370.31,189.00 372.04,189.00 C373.18,189.00 373.84,188.56 373.51,188.01 C373.14,187.42 373.59,187.29 374.61,187.68 C375.77,188.13 376.09,187.96 375.61,187.18 C375.14,186.42 375.43,186.23 376.45,186.62 C377.30,186.95 378.00,186.72 378.00,186.12 C378.00,185.52 379.58,184.37 381.51,183.56 C383.45,182.75 385.29,181.40 385.62,180.55 C385.94,179.70 386.62,179.27 387.13,179.58 C387.64,179.89 387.99,179.78 387.91,179.32 C387.83,178.87 387.82,177.08 387.88,175.35 C388.00,172.27 388.10,172.20 392.11,172.59 C396.05,172.97 396.21,172.87 395.75,170.47 C395.33,168.28 395.55,168.04 397.38,168.61 C398.55,168.97 399.73,169.57 400.00,169.93 C404.32,175.66 407.00,180.27 407.00,181.97 C407.00,183.12 407.65,185.07 408.44,186.29 C411.47,190.95 413.42,203.08 413.46,217.50 C413.50,232.73 412.46,239.41 407.82,253.50 C404.85,262.50 396.98,278.28 394.77,279.64 C394.12,280.04 394.84,278.25 396.36,275.66 C400.25,269.02 399.46,267.44 391.83,266.64 C382.34,265.65 377.27,265.88 375.78,267.36 C375.04,268.11 371.83,269.04 368.65,269.44 C365.12,269.88 362.66,270.71 362.33,271.58 C362.03,272.36 360.58,273.00 359.12,273.00 C357.65,273.00 355.36,273.76 354.04,274.69 C352.71,275.61 349.80,276.68 347.56,277.06 C337.31,278.78 327.64,282.13 325.50,284.70 C324.95,285.37 323.27,286.06 321.76,286.25 C320.26,286.44 317.67,287.90 316.00,289.50 C314.33,291.10 311.77,292.56 310.31,292.76 ZM 394.70 161.27 C395.65,162.22 395.80,163.36 395.20,164.98 L 394.34 167.32 L 392.70 164.98 C391.45,163.20 391.33,162.31 392.19,161.27 C393.15,160.11 393.54,160.11 394.70,161.27 Z" fill="rgb(250,133,77)"/>
<path d="M 248.43 140.59 C248.49,140.38 248.47,140.24 248.38,140.17 C248.05,139.95 246.67,138.97 244.84,137.66 C244.78,137.61 244.72,137.56 244.66,137.52 C246.65,138.93 248.22,140.01 248.67,140.29 C249.49,140.79 252.49,139.14 257.03,135.68 C268.44,126.99 280.60,121.40 295.42,118.02 C307.81,115.20 324.93,115.55 337.50,118.88 C354.55,123.40 375.61,136.08 386.82,148.57 C395.30,158.02 405.83,175.33 406.91,181.33 C406.41,179.27 403.86,175.05 400.00,169.93 C399.73,169.57 398.55,168.97 397.38,168.61 C395.55,168.04 395.33,168.28 395.75,170.47 C396.21,172.87 396.05,172.97 392.11,172.59 C388.10,172.20 388.00,172.27 387.88,175.35 C387.82,177.08 387.83,178.87 387.91,179.32 C387.99,179.78 387.64,179.89 387.13,179.58 C386.62,179.27 385.94,179.70 385.62,180.55 C385.29,181.40 383.45,182.75 381.51,183.56 C379.58,184.37 378.00,185.52 378.00,186.12 C378.00,186.72 377.30,186.95 376.45,186.62 C375.43,186.23 375.14,186.42 375.61,187.18 C376.09,187.96 375.77,188.13 374.61,187.68 C373.59,187.29 373.14,187.42 373.51,188.01 C373.84,188.56 373.18,189.00 372.04,189.00 C370.31,189.00 370.07,189.43 370.60,191.56 C371.08,193.44 370.68,194.65 369.12,196.10 C367.96,197.19 367.00,198.49 367.00,198.99 C367.00,199.49 365.43,200.34 363.51,200.87 C361.59,201.40 359.33,202.53 358.47,203.38 C357.45,204.41 355.95,204.74 354.04,204.36 C351.57,203.86 350.94,204.22 349.55,206.91 C348.66,208.63 346.40,211.61 344.54,213.53 C342.67,215.45 340.63,218.59 340.00,220.51 C339.36,222.43 338.43,224.00 337.92,224.00 C338.43,224.00 339.40,222.31 340.08,220.25 C340.76,218.19 343.49,212.04 346.16,206.59 C352.65,193.29 352.79,188.89 346.88,182.48 C342.01,177.20 337.15,175.54 328.75,176.29 C324.32,176.69 321.92,177.59 318.30,180.19 C312.41,184.42 313.44,182.46 282.72,248.00 L 282.14 249.23 C286.53,239.69 289.66,232.26 289.41,231.85 C289.12,231.38 289.36,231.00 289.94,231.00 C290.52,231.00 291.00,230.49 291.00,229.88 C291.00,229.11 290.52,229.16 289.48,230.02 C288.64,230.72 287.71,231.05 287.42,230.75 C287.13,230.46 286.02,223.08 284.95,214.36 C282.75,196.24 282.10,193.17 278.48,183.50 C272.16,166.61 261.66,151.92 248.43,140.59 ZM 394.70 161.27 C393.54,160.11 393.15,160.11 392.19,161.27 C391.33,162.31 391.45,163.20 392.70,164.98 L 394.34 167.32 L 395.20 164.98 C395.80,163.36 395.65,162.22 394.70,161.27 ZM 276.35 261.60 C271.39,272.21 266.47,282.76 263.82,288.49 C263.41,289.36 263.01,290.22 262.60,291.08 C262.85,290.55 263.10,290.01 263.35,289.47 C266.19,283.33 271.50,271.93 276.35,261.60 Z" fill="rgb(242,94,114)"/>
<path d="M 202.45 371.09 C202.76,370.58 202.47,369.99 201.81,369.77 C201.06,369.52 201.27,369.11 202.35,368.69 C203.40,368.29 203.86,368.42 203.49,369.01 C201.98,371.46 204.78,369.62 208.46,365.75 C213.25,360.72 220.47,354.75 222.83,353.89 C223.75,353.55 225.11,353.51 225.85,353.79 C226.60,354.06 225.61,352.07 223.65,349.35 C223.09,348.56 222.01,346.69 220.64,344.18 C227.26,355.51 232.52,359.43 242.50,362.60 C244.70,363.30 247.62,363.89 249.00,363.92 C253.04,364.01 261.69,361.37 266.38,358.63 C274.84,353.67 273.57,355.86 303.77,294.00 C305.91,289.62 308.42,284.48 311.05,279.11 C306.24,289.10 304.00,294.00 304.00,294.54 C304.00,294.83 304.82,294.63 305.83,294.09 C306.83,293.55 308.85,292.95 310.31,292.76 C311.77,292.56 314.33,291.10 316.00,289.50 C317.67,287.90 320.26,286.44 321.76,286.25 C323.27,286.06 324.95,285.37 325.50,284.70 C327.64,282.13 337.31,278.78 347.56,277.06 C349.80,276.68 352.71,275.61 354.04,274.69 C355.36,273.76 357.65,273.00 359.12,273.00 C360.58,273.00 362.03,272.36 362.33,271.58 C362.66,270.71 365.12,269.88 368.65,269.44 C371.83,269.04 375.04,268.11 375.78,267.36 C377.27,265.88 382.34,265.65 391.83,266.64 C399.46,267.44 400.25,269.02 396.36,275.66 C394.84,278.25 394.12,280.04 394.77,279.64 C395.46,279.22 396.69,277.39 398.16,274.81 C386.23,296.54 367.71,318.41 342.50,340.62 C315.80,364.13 293.73,377.50 271.50,383.61 C263.59,385.78 240.62,386.33 232.75,384.54 C224.34,382.62 218.00,380.42 209.79,376.55 C202.56,373.15 193.42,368.23 191.50,366.71 C190.95,366.27 186.84,363.34 182.37,360.21 C186.84,363.34 190.96,366.27 191.51,366.71 C193.14,367.98 200.43,371.95 201.19,371.98 C201.57,371.99 202.14,371.59 202.45,371.09 ZM 408.39 251.75 C412.54,238.83 413.50,232.09 413.46,217.50 C413.46,215.95 413.43,214.43 413.39,212.93 C413.83,222.09 413.49,231.54 412.14,238.00 C411.18,242.58 409.93,247.16 408.39,251.75 ZM 214.09 331.66 C210.11,323.83 206.39,316.11 206.03,314.68 C206.37,315.58 209.77,322.75 213.89,331.24 C213.95,331.38 214.02,331.52 214.09,331.66 ZM 336.84 225.53 C336.95,225.26 337.00,225.09 337.00,225.03 C337.00,224.47 337.41,224.00 337.92,224.00 C337.41,224.00 337.00,224.47 337.00,225.05 C337.00,225.10 336.95,225.27 336.84,225.53 Z" fill="rgb(244,169,62)"/>
</g>
</svg>